# xmcd
#
# Track frame offsets:
#	150
#	17892
#	36287
#	57055
#	73847
#	95215
#	111600
#	129005
#	148717
#	164657
#	180167
#	200085
#
# Disc length: 2966 seconds
#
# Revision: 0
# Processed by: cddbd v1.4PL0 Copyright (c) Steve Scherf et al.
# Submitted via: audiograbber 1.81.01
#
DISCID=b30b940c
DTITLE=GIANNI BELLA - GIANNI BELLA
DYEAR=1900
DGENRE=Pop
TTITLE0=PIU' CI PENSO
TTITLE1=NON SI PUO' MORIRE DENTRO
TTITLE2=AL LADRO
TTITLE3=BASTA
TTITLE4=DOLCE LUNA... DORMI
TTITLE5=VIVRO' VIVRAI 
TTITLE6=IO CANTO E TU
TTITLE7=ME NE ANDRO'
TTITLE8=L'ARANCIA NON E' BLU
TTITLE9=EPPURE PIU' BELLA
TTITLE10=PANE CALDO
TTITLE11=I SOGNI DI UN ROBOT
EXTD=
EXTT0=
EXTT1=
EXTT2=
EXTT3=
EXTT4=
EXTT5=
EXTT6=
EXTT7=
EXTT8=
EXTT9=
EXTT10=
EXTT11=
PLAYORDER=
